<mxfile host="app.diagrams.net" agent="Mozilla/5.0 (Windows NT 10.0; Win64; x64) AppleWebKit/537.36 (KHTML, like Gecko) Chrome/130.0.0.0 Safari/537.36" version="24.8.3">
  <diagram name="Page-1" id="EDcsQFxJlUtBEEO3dMia">
    <mxGraphModel dx="1167" dy="624" grid="1" gridSize="10" guides="1" tooltips="1" connect="1" arrows="1" fold="1" page="1" pageScale="1" pageWidth="850" pageHeight="1100" math="0" shadow="0">
      <root>
        <mxCell id="0" />
        <mxCell id="1" parent="0" />
        <mxCell id="KQs3RdC2dtyovdrY3kZr-1" value="" style="rounded=0;whiteSpace=wrap;html=1;fillColor=#f5f5f5;strokeColor=#666666;fontColor=#333333;fontStyle=1" vertex="1" parent="1">
          <mxGeometry x="210" y="120" width="620" height="450" as="geometry" />
        </mxCell>
        <mxCell id="KQs3RdC2dtyovdrY3kZr-2" value="&lt;span style=&quot;font-size: 24px ; font-weight: 700 ; text-align: center&quot;&gt;TALE CODE ARCHITECTURE&lt;/span&gt;" style="fillColor=#4DA1F5;strokeColor=none;shadow=1;gradientColor=none;fontSize=14;align=left;spacingLeft=50;fontColor=#ffffff;html=1;" vertex="1" parent="1">
          <mxGeometry x="80" y="60" width="950" height="40" as="geometry" />
        </mxCell>
        <mxCell id="KQs3RdC2dtyovdrY3kZr-5" style="edgeStyle=orthogonalEdgeStyle;rounded=0;orthogonalLoop=1;jettySize=auto;html=1;entryX=0.5;entryY=0;entryDx=0;entryDy=0;entryPerimeter=0;strokeColor=#000000;endArrow=classic;endFill=1;" edge="1" parent="1" source="KQs3RdC2dtyovdrY3kZr-6" target="KQs3RdC2dtyovdrY3kZr-15">
          <mxGeometry relative="1" as="geometry" />
        </mxCell>
        <mxCell id="KQs3RdC2dtyovdrY3kZr-31" style="edgeStyle=orthogonalEdgeStyle;rounded=0;orthogonalLoop=1;jettySize=auto;html=1;" edge="1" parent="1" source="KQs3RdC2dtyovdrY3kZr-6" target="KQs3RdC2dtyovdrY3kZr-7">
          <mxGeometry relative="1" as="geometry">
            <Array as="points">
              <mxPoint x="714" y="469" />
            </Array>
          </mxGeometry>
        </mxCell>
        <mxCell id="KQs3RdC2dtyovdrY3kZr-6" value="Background Worker" style="aspect=fixed;html=1;points=[];align=center;image;fontSize=12;image=img/lib/azure2/preview/Static_Apps.svg;fontStyle=1" vertex="1" parent="1">
          <mxGeometry x="670" y="290" width="87.5" height="70" as="geometry" />
        </mxCell>
        <mxCell id="KQs3RdC2dtyovdrY3kZr-7" value="SQL Database" style="aspect=fixed;html=1;points=[];align=center;image;fontSize=12;image=img/lib/azure2/databases/SQL_Database.svg;fontStyle=1" vertex="1" parent="1">
          <mxGeometry x="491.13" y="430" width="57.75" height="77" as="geometry" />
        </mxCell>
        <mxCell id="KQs3RdC2dtyovdrY3kZr-8" value="App Insights" style="aspect=fixed;html=1;points=[];align=center;image;fontSize=12;image=img/lib/azure2/devops/Application_Insights.svg;" vertex="1" parent="1">
          <mxGeometry x="770" y="130" width="44" height="63" as="geometry" />
        </mxCell>
        <mxCell id="KQs3RdC2dtyovdrY3kZr-34" style="edgeStyle=orthogonalEdgeStyle;rounded=0;orthogonalLoop=1;jettySize=auto;html=1;" edge="1" parent="1" source="KQs3RdC2dtyovdrY3kZr-14" target="KQs3RdC2dtyovdrY3kZr-7">
          <mxGeometry relative="1" as="geometry">
            <Array as="points">
              <mxPoint x="321" y="470" />
            </Array>
          </mxGeometry>
        </mxCell>
        <mxCell id="KQs3RdC2dtyovdrY3kZr-14" value="API" style="aspect=fixed;html=1;points=[];align=center;image;fontSize=12;image=img/lib/azure2/app_services/App_Services.svg;fontStyle=1" vertex="1" parent="1">
          <mxGeometry x="280" y="284" width="82" height="82" as="geometry" />
        </mxCell>
        <mxCell id="KQs3RdC2dtyovdrY3kZr-15" value="" style="html=1;dashed=0;whitespace=wrap;fillColor=#2875E2;strokeColor=#ffffff;points=[[0.005,0.63,0],[0.1,0.2,0],[0.9,0.2,0],[0.5,0,0],[0.995,0.63,0],[0.72,0.99,0],[0.5,1,0],[0.28,0.99,0]];shape=mxgraph.kubernetes.icon;prIcon=api" vertex="1" parent="1">
          <mxGeometry x="850" y="397" width="70" height="90" as="geometry" />
        </mxCell>
        <mxCell id="KQs3RdC2dtyovdrY3kZr-22" value="Message Bus" style="aspect=fixed;html=1;points=[];align=center;image;fontSize=12;image=img/lib/mscae/Service_Bus.svg;fontStyle=1" vertex="1" parent="1">
          <mxGeometry x="478.87" y="160" width="70" height="70" as="geometry" />
        </mxCell>
        <mxCell id="KQs3RdC2dtyovdrY3kZr-24" style="edgeStyle=orthogonalEdgeStyle;rounded=0;orthogonalLoop=1;jettySize=auto;html=1;" edge="1" parent="1" source="KQs3RdC2dtyovdrY3kZr-23" target="KQs3RdC2dtyovdrY3kZr-14">
          <mxGeometry relative="1" as="geometry" />
        </mxCell>
        <mxCell id="KQs3RdC2dtyovdrY3kZr-23" value="Actor" style="shape=umlActor;verticalLabelPosition=bottom;verticalAlign=top;html=1;outlineConnect=0;" vertex="1" parent="1">
          <mxGeometry x="100" y="286" width="40" height="80" as="geometry" />
        </mxCell>
        <mxCell id="KQs3RdC2dtyovdrY3kZr-36" style="edgeStyle=orthogonalEdgeStyle;rounded=0;orthogonalLoop=1;jettySize=auto;html=1;entryX=0.005;entryY=0.613;entryDx=0;entryDy=0;entryPerimeter=0;dashed=1;" edge="1" parent="1" source="KQs3RdC2dtyovdrY3kZr-14" target="KQs3RdC2dtyovdrY3kZr-22">
          <mxGeometry relative="1" as="geometry">
            <Array as="points">
              <mxPoint x="321" y="203" />
            </Array>
          </mxGeometry>
        </mxCell>
        <mxCell id="KQs3RdC2dtyovdrY3kZr-37" style="edgeStyle=orthogonalEdgeStyle;rounded=0;orthogonalLoop=1;jettySize=auto;html=1;entryX=0.491;entryY=0.051;entryDx=0;entryDy=0;entryPerimeter=0;dashed=1;" edge="1" parent="1" source="KQs3RdC2dtyovdrY3kZr-22" target="KQs3RdC2dtyovdrY3kZr-6">
          <mxGeometry relative="1" as="geometry" />
        </mxCell>
      </root>
    </mxGraphModel>
  </diagram>
</mxfile>
